<svg width="56" height="56" viewBox="0 0 56 56" fill="none" xmlns="http://www.w3.org/2000/svg">
<path d="M55.1463 4.35656C55.1463 2.86416 55.1463 2.1184 54.865 1.5441C54.5957 0.994357 54.1515 0.550171 53.6018 0.280902C53.0279 0 52.2821 0 50.7897 0H4.35652C2.86455 0 2.11792 0 1.54405 0.281333C0.994743 0.550602 0.550559 0.994788 0.280858 1.54453C-4.32175e-05 2.11839 -4.40598e-05 2.86459 -4.40598e-05 4.35699V50.7902C-4.40598e-05 52.2822 -4.32175e-05 53.0288 0.280858 53.6027C0.550559 54.152 0.994743 54.5962 1.54405 54.8659C2.11792 55.1468 2.86455 55.1468 4.35652 55.1468H50.7897C52.2821 55.1468 53.0279 55.1468 53.6022 54.8659C54.1519 54.5962 54.5961 54.152 54.8654 53.6027C55.1467 53.0288 55.1467 52.2822 55.1467 50.7902V4.35656H55.1463Z" fill="white"/>
<path d="M13.8664 28.6413H8.78229L7.86664 30.2913H6.30347L10.6591 22.7087H12.1464L16.5071 30.2987H14.7719L13.8664 28.6487V28.6413ZM13.2543 27.5267L11.337 24.0433H11.3218L9.39947 27.5267H13.2593H13.2543Z" fill="#0634D0"/>
<path d="M18.217 22.7087H19.507V30.2987H18.217V22.7087Z" fill="#0634D0"/>
<path d="M21.6318 22.7087H26.3264C28.5472 22.7087 29.1088 23.6547 29.1088 24.6887C29.1088 25.7227 28.7901 26.104 27.8694 26.3167V26.3313C29.0481 26.4927 29.4932 27.2333 29.4932 28.0693C29.4932 29.4407 28.699 30.2913 26.5591 30.2913H21.6369V22.7087H21.6318ZM26.5237 25.8693C27.5658 25.8693 27.9655 25.532 27.9655 24.938C27.9655 24.344 27.5355 24.0287 26.3011 24.0287H22.9218V25.8767H26.5237V25.8693ZM26.4175 28.9787C27.7227 28.9787 28.2387 28.59 28.2387 27.9153C28.2387 27.2407 27.7834 26.9693 26.5844 26.9693H22.9168V28.9787H26.4175Z" fill="#0634D0"/>
<path d="M33.9601 24.1167H30.7073V22.7087H38.508V24.1167H35.245V30.2987H33.955V24.1167H33.9601Z" fill="#0634D0"/>
<path d="M39.4338 26.5147C39.4338 24.2927 40.9464 22.562 43.8654 22.562C46.7843 22.562 47.9681 24.3513 47.9782 25.6053C47.9782 25.6273 47.9782 25.708 47.9681 25.7813H46.8045V25.7373C46.8045 24.9893 46.0407 23.97 43.916 23.97C41.7912 23.97 40.734 25.0407 40.734 26.5147C40.734 27.9887 41.5687 29.0373 43.9463 29.0373C46.324 29.0373 46.8551 28.2087 46.8551 27.2993V27.2333H48.0187C48.0288 27.2993 48.0288 27.38 48.0288 27.3947C48.0288 28.8393 46.8905 30.4527 43.9109 30.4527C40.9312 30.4527 39.4338 28.4947 39.4338 26.522V26.5147Z" fill="#0634D0"/>
</svg>
